<?xml version="1.0" encoding="iso-8859-1"?>
<!-- Uploaded to: SVG Repo, www.svgrepo.com, Generator: SVG Repo Mixer Tools -->
<svg height="800px" width="800px" version="1.1" id="Layer_1" xmlns="http://www.w3.org/2000/svg" xmlns:xlink="http://www.w3.org/1999/xlink" 
	 viewBox="0 0 473.931 473.931" xml:space="preserve">
<circle style="fill:#EB9682;" cx="236.966" cy="236.966" r="236.966"/>
<path style="fill:#DBD6D4;" d="M195.548,274.099c0-8.681,19.921-15.712,22.495-15.712h37.792c2.578,0,22.48,7.031,22.48,15.712
	l26.069,130.262c0,8.681-5.957,15.727-13.309,15.727H182.8c-7.353,0-13.309-7.046-13.309-15.727L195.548,274.099z"/>
<path style="fill:#E7E0DC;" d="M325.107,267.88c0,9.613-7.79,17.392-17.392,17.392H166.164c-9.601,0-17.384-7.779-17.384-17.392
	V108.87c0-9.609,7.783-17.392,17.384-17.392h141.551c9.601,0,17.392,7.783,17.392,17.392V267.88z"/>
<path style="fill:#E4E4E4;" d="M325.107,237.112c0,9.609-7.79,17.392-17.392,17.392H166.164c-9.601,0-17.384-7.783-17.384-17.392
	V108.87h176.33v128.241H325.107z"/>
<path style="fill:#E7E0DC;" d="M263.54,404.372c0,8.685-2.361,15.715-5.261,15.715h-42.686c-2.907,0-5.253-7.031-5.253-15.715
	l-49.578-130.258c0-8.681,6.731-15.727,15.034-15.727h122.288c8.303,0,15.034,7.046,15.034,15.727L263.54,404.372z"/>
<path style="fill:#E7E4E2;" d="M333.713,238.575c0,4.333-3.91,52.194-33.302,81.604c-14.836,14.844-29.189,55.591-63.632,55.591
	s-48.489-41.144-63.464-56.111c-29.16-29.152-32.389-76.773-32.389-81.084l0,0c0-7.873,4.786-14.252,10.705-14.252h171.376
	C328.927,224.326,333.713,230.706,333.713,238.575L333.713,238.575z"/>
<path style="fill:#EFEDEC;" d="M333.713,238.575c0,4.333-3.91,52.194-33.302,81.604c-14.836,14.844-112.122,14.447-127.096-0.52
	c-29.16-29.152-32.389-76.773-32.389-81.084l0,0c0-7.873,4.786-14.252,10.705-14.252h171.376
	C328.927,224.326,333.713,230.706,333.713,238.575L333.713,238.575z"/>
<path style="fill:#D8D1CE;" d="M334.042,225.157c0,2.402-4.808,4.34-10.743,4.34h-171.96c-5.942,0-10.75-1.942-10.75-4.34l0,0
	c0-2.395,4.808-4.333,10.75-4.333h171.96C329.234,220.824,334.042,222.766,334.042,225.157L334.042,225.157z"/>
<path style="fill:#CDC6C3;" d="M316.452,154.546c0,20.258-4.763,50.697-12.958,66.454l-133.031,0.153
	c-8.251-15.794-13.044-46.293-13.044-66.607c0-55.374,35.607-100.253,79.52-100.253S316.452,99.172,316.452,154.546z"/>
<g>
	<path style="fill:#BAADAB;" d="M182.845,112.736c0,3.304-2.253,6.002-5.006,6.002c-2.746,0-4.984-2.698-4.984-6.002
		c0-3.33,2.238-6.009,4.984-6.009C180.592,106.726,182.845,109.409,182.845,112.736z"/>
	<path style="fill:#BAADAB;" d="M300.617,112.736c0,3.304-2.238,6.002-4.992,6.002s-4.999-2.698-4.999-6.002
		c0-3.33,2.245-6.009,4.999-6.009S300.617,109.409,300.617,112.736z"/>
</g>
</svg>